<?xml version="1.0" encoding="UTF-8" standalone="no"?>
<!-- Created with Inkscape (http://www.inkscape.org/) -->

<svg
   xmlns:dc="http://purl.org/dc/elements/1.1/"
   xmlns:cc="http://creativecommons.org/ns#"
   xmlns:rdf="http://www.w3.org/1999/02/22-rdf-syntax-ns#"
   xmlns:svg="http://www.w3.org/2000/svg"
   xmlns="http://www.w3.org/2000/svg"
   xmlns:sodipodi="http://sodipodi.sourceforge.net/DTD/sodipodi-0.dtd"
   xmlns:inkscape="http://www.inkscape.org/namespaces/inkscape"
   width="20"
   height="19.9375"
   id="svg2985"
   version="1.1"
   inkscape:version="0.48.3.1 r9886"
   sodipodi:docname="edit.svg">
  <defs
     id="defs2987" />
  <sodipodi:namedview
     id="base"
     pagecolor="#ffffff"
     bordercolor="#666666"
     borderopacity="1.0"
     inkscape:pageopacity="0.0"
     inkscape:pageshadow="2"
     inkscape:zoom="5.5989008"
     inkscape:cx="5.7230238"
     inkscape:cy="8.1420858"
     inkscape:current-layer="layer1"
     showgrid="true"
     inkscape:grid-bbox="true"
     inkscape:document-units="px"
     fit-margin-top="0"
     fit-margin-left="0"
     fit-margin-right="0"
     fit-margin-bottom="0"
     inkscape:window-width="1301"
     inkscape:window-height="744"
     inkscape:window-x="65"
     inkscape:window-y="24"
     inkscape:window-maximized="1" />
  <metadata
     id="metadata2990">
    <rdf:RDF>
      <cc:Work
         rdf:about="">
        <dc:format>image/svg+xml</dc:format>
        <dc:type
           rdf:resource="http://purl.org/dc/dcmitype/StillImage" />
        <dc:title />
      </cc:Work>
    </rdf:RDF>
  </metadata>
  <g
     id="layer1"
     inkscape:label="Layer 1"
     inkscape:groupmode="layer"
     transform="translate(0,-12.0625)">
    <path
       style="fill:#ffffff;stroke:#000000;stroke-width:0.75039005000000003px;stroke-linecap:butt;stroke-linejoin:miter;stroke-opacity:1;fill-opacity:1"
       d="m 0.51228999,12.506201 11.17055901,0 3.678108,-0.06593 2.236772,2.073101 2.026213,2.012641 -0.05984,15.09964 -19.1880477,-0.06592 z"
       id="path5705"
       inkscape:connector-curvature="0"
       sodipodi:nodetypes="cccccccc" />
    <path
       style="fill:none;stroke:#000000;stroke-width:0.79032487px;stroke-linecap:butt;stroke-linejoin:miter;stroke-opacity:1"
       d="M 2.7600244,19.56062 17.795646,19.758407"
       id="path5707"
       inkscape:connector-curvature="0"
       sodipodi:nodetypes="cc" />
    <path
       style="fill:none;stroke:#000000;stroke-width:0.79032487px;stroke-linecap:butt;stroke-linejoin:miter;stroke-opacity:1"
       d="m 2.5718278,22.418254 c 4.9762581,0.08967 9.8296002,0.26129 15.0356222,0.197787"
       id="path5707-1"
       inkscape:connector-curvature="0"
       sodipodi:nodetypes="cc" />
    <path
       style="fill:none;stroke:#000000;stroke-width:0.79032487px;stroke-linecap:butt;stroke-linejoin:miter;stroke-opacity:1"
       d="M 2.5303216,27.768799 17.565944,27.966587"
       id="path5707-1-2"
       inkscape:connector-curvature="0"
       sodipodi:nodetypes="cc" />
    <path
       style="fill:#4d4d4d;fill-opacity:1;stroke:#000000;stroke-width:0.75039005px;stroke-linecap:butt;stroke-linejoin:miter;stroke-opacity:1"
       d="m 15.214801,12.753225 -0.005,3.783 4.374138,0.123521"
       id="path5761"
       inkscape:connector-curvature="0"
       sodipodi:nodetypes="ccc" />
    <path
       style="fill:none;stroke:#000000;stroke-width:0.1;stroke-linecap:butt;stroke-linejoin:miter;stroke-opacity:1;stroke-miterlimit:4;stroke-dasharray:none"
       d="m 3.2204934,7.4344082 c 0.3999177,0.054502 0.6083016,-2.0838487 0.8840569,-2.0838487 0.5224239,0 0.785677,1.7542935 0.8209101,1.7049671 0.9320982,-1.3049375 0.4782599,-1.1224989 0.884057,0.5683224 0.1082801,0.4511668 0.3981311,1.4523793 0.4420285,1.4523793 0.238749,0 0.235962,-0.5915829 0.4420285,-0.6946162 0.2862661,-0.143133 0.7872317,0.143133 1.0734978,0 0.376365,-0.1881825 0.5553803,-0.6440205 1.0103509,-0.7577631 0.2712878,-0.067822 0.6193511,0.088235 0.884057,0 0.3342054,-0.1114019 0.6245339,-0.5074872 1.0103509,-0.3788816 0.104485,0.034828 0.292532,0.3015628 0.442028,0.1894408 0.151584,-0.1136878 0.187316,-0.3767565 0.315735,-0.5051755 0.19796,-0.1979602 0.272613,0.3357604 0.315735,0.3788816 0.191773,0.191773 0.45328,-0.3845074 0.568322,-0.4420285 0.130152,-0.065076 0.139393,0.5301994 0.568322,0.3157347 0.882878,-0.4414388 0.844264,0.5973034 1.768114,-0.4420285 0.694761,-0.7816058 0.215438,0.025996 0.442029,0.2525877 0.0165,0.016501 0.940142,0.4700712 1.010351,0.5051754 0.03146,0.015728 0.588158,0.043311 0.631469,0 0.116247,-0.1162468 0.242214,-0.5259234 0.315735,-0.3788816 0.06125,0.1224947 0,1.2036051 0,0.5683224"
       id="path2999"
       inkscape:connector-curvature="0"
       transform="translate(0,12.0625)" />
    <path
       style="fill:none;stroke:#000000;stroke-width:0.1;stroke-linecap:butt;stroke-linejoin:miter;stroke-miterlimit:4;stroke-opacity:1;stroke-dasharray:none"
       d="m 2.9994791,22.401667 c -0.200921,-0.05023 -0.2662846,-0.02054 -0.3788816,-0.189441 -0.2147844,-0.322176 0.7913398,-0.686222 1.0103509,-0.631469 0.4395217,0.10988 0.360572,1.108123 0.9472039,1.010351 1.6176374,-0.269606 0.3338538,-3.012934 3.4730811,0.126294 0.3369745,0.336974 0.3646671,-1.384495 0.7577631,-1.515527 0.769075,-0.256358 1.1766514,2.060708 1.5786735,2.46273 0.208508,0.208509 1.453315,-2.612763 1.515526,-2.462729 0.983912,2.372884 0.723187,0.668165 1.452379,-0.189442 0.107171,-0.126044 0.652194,2.201259 1.326086,0.568323 0.163137,-0.395303 0.952419,1.879924 1.262939,1.957555 0.427557,0.106889 0.509024,-1.484915 0.884057,-1.578673 0.06061,-0.01515 0.49567,0.543195 0.505175,0.505175 0.154464,-0.617856 0,-1.444812 0,-2.083849"
       id="path3769"
       inkscape:connector-curvature="0"
       sodipodi:nodetypes="ccssssssssscsc" />
    <g
       id="g3780">
      <path
         sodipodi:nodetypes="cccccccccccc"
         inkscape:connector-curvature="0"
         id="path3758"
         d="M 13.614205,16.43625 7.1924179,12.874993 2.6901482,22.91736 3.7889789,23.119788 c 0.1570913,0.26706 0.2396108,0.459547 0.4712738,0.801179 l 1.0321784,0.131551 0.3612789,0.812347 1.0867219,-0.01132 0.4207014,0.731788 0.7928416,-0.01017 0.3296093,0.613538 z"
         style="fill:#8de200;fill-opacity:1;stroke:#000000;stroke-width:0.25904629;stroke-linecap:butt;stroke-linejoin:miter;stroke-miterlimit:4;stroke-opacity:1;stroke-dasharray:none" />
      <path
         sodipodi:nodetypes="ccc"
         transform="translate(0,12.0625)"
         inkscape:connector-curvature="0"
         id="path3770"
         d="m 2.7626781,10.86013 1.1674517,3.743384 4.3263311,-0.459746"
         style="fill:none;stroke:#000000;stroke-width:0.5;stroke-linecap:butt;stroke-linejoin:miter;stroke-miterlimit:4;stroke-opacity:1;stroke-dasharray:none" />
      <path
         sodipodi:nodetypes="ccc"
         transform="translate(0,12.0625)"
         inkscape:connector-curvature="0"
         id="path3778"
         d="M 3.4415076,12.375655 3.8973675,14.642279 6.4252,14.175342"
         style="fill:#000000;fill-opacity:1;stroke:#000000;stroke-width:0.2;stroke-linecap:butt;stroke-linejoin:miter;stroke-miterlimit:4;stroke-opacity:1;stroke-dasharray:none" />
    </g>
  </g>
</svg>
