<?xml version="1.0" encoding="UTF-8" standalone="no"?>
<!-- Created with Inkscape (http://www.inkscape.org/) -->

<svg
   xmlns:dc="http://purl.org/dc/elements/1.1/"
   xmlns:cc="http://creativecommons.org/ns#"
   xmlns:rdf="http://www.w3.org/1999/02/22-rdf-syntax-ns#"
   xmlns:svg="http://www.w3.org/2000/svg"
   xmlns="http://www.w3.org/2000/svg"
   xmlns:sodipodi="http://sodipodi.sourceforge.net/DTD/sodipodi-0.dtd"
   xmlns:inkscape="http://www.inkscape.org/namespaces/inkscape"
   version="1.0"
   width="80"
   height="25"
   id="svg2593"
   xml:space="preserve"
   inkscape:version="0.48.2 r9819"
   sodipodi:docname="OpenID_logo.svg"><metadata
     id="metadata29"><rdf:RDF><cc:Work
         rdf:about=""><dc:format>image/svg+xml</dc:format><dc:type
           rdf:resource="http://purl.org/dc/dcmitype/StillImage" /></cc:Work></rdf:RDF></metadata><sodipodi:namedview
     pagecolor="#ffffff"
     bordercolor="#666666"
     borderopacity="1"
     objecttolerance="10"
     gridtolerance="10"
     guidetolerance="10"
     inkscape:pageopacity="0"
     inkscape:pageshadow="2"
     inkscape:window-width="1366"
     inkscape:window-height="744"
     id="namedview27"
     showgrid="false"
     fit-margin-top="0"
     fit-margin-left="0"
     fit-margin-right="0"
     fit-margin-bottom="0"
     inkscape:zoom="0.925"
     inkscape:cx="140.00104"
     inkscape:cy="-135.9589"
     inkscape:window-x="0"
     inkscape:window-y="24"
     inkscape:window-maximized="1"
     inkscape:current-layer="svg2593"
     showborder="true"
     inkscape:showpageshadow="false" /><defs
     id="defs2596"><clipPath
       id="clipPath2616"><path
         d="m 0,14400 14400,0 L 14400,0 0,0 0,14400 z"
         id="path2618"
         inkscape:connector-curvature="0" /></clipPath></defs><g
     transform="matrix(0.33393436,0,0,-0.34077379,-2300.7199,2482.7453)"
     id="g2602"><g
       transform="matrix(0.375,0,0,0.375,4301.4506,4557.5812)"
       id="g2734"><g
         id="g2726"><g
           transform="translate(6998.0969,7259.1135)"
           id="g2604"><path
             d="M 0,0 0,-159.939 0,-180 32,-164.939 32,15.633 0,0 z"
             id="path2606"
             style="fill:#f8931e;fill-opacity:1;fill-rule:nonzero;stroke:none"
             inkscape:connector-curvature="0" /></g><g
           transform="translate(7108.9192,7206.3137)"
           id="g2608"><path
             d="M 0,0 4.417,-45.864 -57.466,-32.4"
             id="path2610"
             style="fill:#b3b3b3;fill-opacity:1;fill-rule:nonzero;stroke:none"
             inkscape:connector-curvature="0" /></g><g
           transform="translate(6934.0969,7147.6213)"
           id="g2620"><path
             d="m 0,0 c 0,22.674 24.707,41.769 58.383,47.598 l 0,20.325 C 6.873,61.697 -32,33.656 -32,0 -32,-34.869 9.725,-63.709 64,-68.508 l 0,20.061 C 27.484,-43.869 0,-23.919 0,0 m 101.617,67.915 0,-20.317 c 13.399,-2.319 25.385,-6.727 34.951,-12.64 l 22.627,13.984 c -15.42,9.531 -35.322,16.283 -57.578,18.973"
             id="path2622"
             style="fill:#b3b3b3;fill-opacity:1;fill-rule:nonzero;stroke:none"
             inkscape:connector-curvature="0" /></g></g><g
         id="g2713"><g
           transform="translate(7160.1521,7143.8156)"
           id="g2624"
           style="fill:#000000"><path
             d="m 0,0 c 1.155,-4.336 2.973,-8.238 5.451,-11.707 2.477,-3.469 5.655,-6.256 9.538,-8.361 3.881,-2.106 8.505,-3.159 13.874,-3.159 5.368,0 9.991,1.053 13.875,3.159 3.881,2.105 7.061,4.892 9.537,8.361 2.479,3.469 4.294,7.371 5.452,11.707 1.156,4.335 1.734,8.733 1.734,13.192 0,4.459 -0.578,8.858 -1.734,13.194 -1.158,4.336 -2.973,8.238 -5.452,11.706 -2.476,3.469 -5.656,6.256 -9.537,8.362 -3.884,2.106 -8.507,3.159 -13.875,3.159 -5.369,0 -9.993,-1.053 -13.874,-3.159 C 11.106,44.348 7.928,41.561 5.451,38.092 2.973,34.624 1.155,30.722 0,26.386 -1.158,22.05 -1.734,17.651 -1.734,13.192 -1.734,8.733 -1.158,4.335 0,0 m -10.839,30.598 c 1.775,5.574 4.438,10.508 7.99,14.803 3.55,4.293 7.969,7.721 13.255,10.282 5.284,2.558 11.437,3.84 18.457,3.84 7.019,0 13.172,-1.282 18.457,-3.84 5.285,-2.561 9.704,-5.989 13.256,-10.282 3.55,-4.295 6.213,-9.229 7.99,-14.803 1.775,-5.576 2.663,-11.378 2.663,-17.406 0,-6.029 -0.888,-11.83 -2.663,-17.404 -1.777,-5.575 -4.44,-10.511 -7.99,-14.804 -3.552,-4.295 -7.971,-7.701 -13.256,-10.218 -5.285,-2.52 -11.438,-3.78 -18.457,-3.78 -7.02,0 -13.173,1.26 -18.457,3.78 -5.286,2.517 -9.705,5.923 -13.255,10.218 -3.552,4.293 -6.215,9.229 -7.99,14.804 -1.777,5.574 -2.664,11.375 -2.664,17.404 0,6.028 0.887,11.83 2.664,17.406"
             id="path2626"
             style="fill:#000000;fill-opacity:1;fill-rule:nonzero;stroke:none"
             inkscape:connector-curvature="0" /></g><g
           transform="translate(7289.0456,7154.0979)"
           id="g2628"
           style="fill:#000000"><path
             d="m 0,0 c -0.786,2.849 -1.981,5.389 -3.593,7.617 -1.61,2.231 -3.676,4.006 -6.193,5.327 -2.521,1.321 -5.473,1.982 -8.858,1.982 -3.55,0 -6.565,-0.701 -9.043,-2.106 -2.477,-1.404 -4.501,-3.242 -6.07,-5.511 -1.569,-2.274 -2.706,-4.853 -3.406,-7.743 -0.703,-2.892 -1.053,-5.822 -1.053,-8.795 0,-3.139 0.371,-6.174 1.114,-9.106 0.744,-2.932 1.921,-5.512 3.531,-7.742 1.611,-2.229 3.695,-4.026 6.256,-5.389 2.558,-1.361 5.656,-2.043 9.291,-2.043 3.632,0 6.668,0.701 9.105,2.106 2.435,1.404 4.398,3.261 5.884,5.574 1.487,2.312 2.559,4.955 3.221,7.928 0.66,2.972 0.991,6.027 0.991,9.168 C 1.177,-5.761 0.784,-2.85 0,0 m -37.845,22.731 0,-8.671 0.248,0 c 1.735,3.549 4.459,6.131 8.176,7.743 3.717,1.609 7.805,2.414 12.264,2.414 4.955,0 9.269,-0.909 12.945,-2.725 3.674,-1.817 6.731,-4.273 9.167,-7.371 2.435,-3.097 4.274,-6.67 5.513,-10.715 1.238,-4.047 1.858,-8.342 1.858,-12.884 0,-4.543 -0.6,-8.837 -1.796,-12.882 -1.199,-4.047 -3.016,-7.578 -5.451,-10.592 -2.437,-3.016 -5.494,-5.389 -9.167,-7.123 -3.676,-1.735 -7.95,-2.602 -12.821,-2.602 -1.57,0 -3.326,0.166 -5.265,0.496 -1.942,0.332 -3.862,0.868 -5.761,1.612 -1.9,0.742 -3.696,1.752 -5.388,3.033 -1.694,1.281 -3.117,2.869 -4.274,4.769 l -0.248,0 0,-32.951 -10.529,0 0,88.449 10.529,0 z"
             id="path2630"
             style="fill:#000000;fill-opacity:1;fill-rule:nonzero;stroke:none"
             inkscape:connector-curvature="0" /></g><g
           transform="translate(7354.0798,7157.9992)"
           id="g2632"
           style="fill:#000000"><path
             d="m 0,0 c -0.949,2.229 -2.23,4.15 -3.842,5.761 -1.609,1.61 -3.51,2.889 -5.697,3.84 -2.19,0.949 -4.604,1.423 -7.246,1.423 -2.725,0 -5.184,-0.474 -7.369,-1.423 -2.191,-0.951 -4.071,-2.252 -5.639,-3.903 -1.57,-1.652 -2.809,-3.572 -3.717,-5.76 -0.908,-2.189 -1.445,-4.521 -1.609,-7 l 36.791,0 C 1.506,-4.583 0.949,-2.229 0,0 m 2.539,-41.127 c -4.791,-3.635 -10.82,-5.451 -18.086,-5.451 -5.121,0 -9.558,0.828 -13.316,2.478 -3.759,1.651 -6.918,3.963 -9.477,6.938 -2.56,2.973 -4.48,6.521 -5.76,10.652 -1.282,4.129 -2.004,8.629 -2.168,13.503 0,4.871 0.743,9.331 2.229,13.379 1.487,4.045 3.572,7.557 6.257,10.529 2.682,2.973 5.862,5.284 9.538,6.938 3.674,1.651 7.699,2.477 12.078,2.477 5.697,0 10.426,-1.176 14.184,-3.531 C 1.773,14.432 4.789,11.438 7.061,7.804 9.33,4.169 10.9,0.205 11.77,-4.087 c 0.865,-4.296 1.216,-8.384 1.052,-12.265 l -47.941,0 c -0.084,-2.808 0.248,-5.472 0.99,-7.99 0.744,-2.519 1.941,-4.75 3.594,-6.689 1.65,-1.942 3.758,-3.49 6.316,-4.645 2.561,-1.158 5.576,-1.734 9.045,-1.734 4.459,0 8.111,1.031 10.963,3.096 2.848,2.064 4.725,5.203 5.635,9.416 l 10.406,0 C 10.424,-32.084 7.326,-37.494 2.539,-41.127"
             id="path2634"
             style="fill:#000000;fill-opacity:1;fill-rule:nonzero;stroke:none"
             inkscape:connector-curvature="0" /></g><g
           transform="translate(7383.9958,7176.8288)"
           id="g2636"
           style="fill:#000000"><path
             d="m 0,0 0,-10.159 0.246,0 c 4.377,7.762 11.315,11.645 20.813,11.645 4.211,0 7.72,-0.579 10.529,-1.735 2.807,-1.156 5.078,-2.767 6.814,-4.83 1.733,-2.066 2.952,-4.521 3.653,-7.371 0.701,-2.849 1.052,-6.008 1.052,-9.476 l 0,-42.118 -10.529,0 0,43.356 c 0,3.965 -1.156,7.102 -3.467,9.415 -2.312,2.312 -5.494,3.468 -9.541,3.468 -3.218,0 -6.007,-0.494 -8.361,-1.486 -2.354,-0.991 -4.316,-2.396 -5.883,-4.211 -1.57,-1.818 -2.748,-3.946 -3.531,-6.38 -0.785,-2.437 -1.176,-5.101 -1.176,-7.99 l 0,-36.172 -10.529,0 L -9.91,0 0,0 z"
             id="path2638"
             style="fill:#000000;fill-opacity:1;fill-rule:nonzero;stroke:none"
             inkscape:connector-curvature="0" /></g><path
           d="m 7454.4799,7112.7846 -13.008,0 0,88.448 13.008,0 0,-88.448 z"
           id="path2640"
           style="fill:#000000;fill-opacity:1;fill-rule:nonzero;stroke:none"
           inkscape:connector-curvature="0" /><g
           transform="translate(7499.445,7122.6945)"
           id="g2642"
           style="fill:#000000"><path
             d="m 0,0 c 1.322,0 2.975,0.104 4.955,0.311 1.983,0.205 4.09,0.699 6.318,1.486 2.231,0.783 4.44,1.92 6.627,3.406 2.188,1.486 4.153,3.51 5.883,6.07 1.737,2.559 3.16,5.76 4.276,9.6 1.115,3.841 1.671,8.485 1.671,13.937 0,5.284 -0.517,10.011 -1.546,14.183 -1.034,4.17 -2.725,7.721 -5.08,10.653 -2.354,2.931 -5.387,5.161 -9.104,6.69 -3.717,1.527 -8.301,2.292 -13.752,2.292 l -19.82,0 L -19.572,0 0,0 z m -0.992,78.538 c 13.627,0 24.115,-3.468 31.467,-10.406 C 37.824,61.195 41.5,50.623 41.5,36.419 41.5,28.987 40.672,22.4 39.021,16.662 37.369,10.92 34.811,6.09 31.342,2.168 27.873,-1.756 23.455,-4.75 18.086,-6.813 12.717,-8.879 6.359,-9.91 -0.992,-9.91 l -30.35,0 0,88.448 30.35,0 z"
             id="path2644"
             style="fill:#000000;fill-opacity:1;fill-rule:nonzero;stroke:none"
             inkscape:connector-curvature="0" /></g></g></g></g></svg>